<svg width="680" height="310" viewBox="0 0 680 310" xmlns="http://www.w3.org/2000/svg" font-family="system-ui, -apple-system, sans-serif">

  <!-- / Homepage -->
  <rect x="30" y="30" width="130" height="44" rx="8" fill="#fef9ec" stroke="#f0c060" stroke-width="1"/>
  <text x="95" y="48" font-size="12" font-weight="500" fill="#1a1a1a" text-anchor="middle">/</text>
  <text x="95" y="64" font-size="11" fill="#555" text-anchor="middle">Homepage</text>
  <text x="95" y="92" font-size="11" fill="#888" text-anchor="middle">SSG / ISR</text>

  <!-- /breweries -->
  <rect x="190" y="30" width="145" height="44" rx="8" fill="#e6faf5" stroke="#5dcaa5" stroke-width="1"/>
  <text x="263" y="48" font-size="12" font-weight="500" fill="#1a1a1a" text-anchor="middle">/breweries</text>
  <text x="263" y="64" font-size="11" fill="#555" text-anchor="middle">list + map</text>
  <text x="263" y="92" font-size="11" fill="#888" text-anchor="middle">SSR + CSR</text>

  <!-- /breweries/[id] -->
  <rect x="360" y="30" width="145" height="44" rx="8" fill="#e6faf5" stroke="#5dcaa5" stroke-width="1"/>
  <text x="433" y="48" font-size="12" font-weight="500" fill="#1a1a1a" text-anchor="middle">/breweries/[id]</text>
  <text x="433" y="64" font-size="11" fill="#555" text-anchor="middle">brewery detail</text>
  <text x="433" y="92" font-size="11" fill="#888" text-anchor="middle">SSR</text>

  <!-- /beers -->
  <rect x="530" y="30" width="120" height="44" rx="8" fill="#ede9fe" stroke="#c4b5fd" stroke-width="1"/>
  <text x="590" y="48" font-size="12" font-weight="500" fill="#1a1a1a" text-anchor="middle">/beers</text>
  <text x="590" y="64" font-size="11" fill="#555" text-anchor="middle">beer catalog</text>
  <text x="590" y="92" font-size="11" fill="#888" text-anchor="middle">SSR + CSR</text>

  <!-- divider -->
  <line x1="30" y1="110" x2="650" y2="110" stroke="#ddd" stroke-width="0.5" stroke-dasharray="4 4"/>

  <!-- /beers/[id] -->
  <rect x="30" y="130" width="120" height="44" rx="8" fill="#ede9fe" stroke="#c4b5fd" stroke-width="1"/>
  <text x="90" y="148" font-size="12" font-weight="500" fill="#1a1a1a" text-anchor="middle">/beers/[id]</text>
  <text x="90" y="164" font-size="11" fill="#555" text-anchor="middle">beer detail</text>
  <text x="90" y="192" font-size="11" fill="#888" text-anchor="middle">SSR</text>

  <!-- /styles -->
  <rect x="180" y="130" width="120" height="44" rx="8" fill="#edfaee" stroke="#5dca6a" stroke-width="1"/>
  <text x="240" y="148" font-size="12" font-weight="500" fill="#1a1a1a" text-anchor="middle">/styles</text>
  <text x="240" y="164" font-size="11" fill="#555" text-anchor="middle">style list</text>
  <text x="240" y="192" font-size="11" fill="#888" text-anchor="middle">SSG</text>

  <!-- /styles/[id] -->
  <rect x="330" y="130" width="130" height="44" rx="8" fill="#edfaee" stroke="#5dca6a" stroke-width="1"/>
  <text x="395" y="148" font-size="12" font-weight="500" fill="#1a1a1a" text-anchor="middle">/styles/[id]</text>
  <text x="395" y="164" font-size="11" fill="#555" text-anchor="middle">style detail</text>
  <text x="395" y="192" font-size="11" fill="#888" text-anchor="middle">SSR</text>

  <!-- divider -->
  <line x1="30" y1="215" x2="650" y2="215" stroke="#ddd" stroke-width="0.5" stroke-dasharray="4 4"/>

  <!-- Legend -->
  <rect x="55" y="232" width="80" height="28" rx="6" fill="#fef9ec" stroke="#f0c060" stroke-width="1"/>
  <text x="95" y="251" font-size="11" fill="#555" text-anchor="middle">SSG / ISR</text>
  <text x="155" y="251" font-size="11" fill="#888">static · build-time · revalidate</text>

  <rect x="55" y="268" width="80" height="28" rx="6" fill="#e6faf5" stroke="#5dcaa5" stroke-width="1"/>
  <text x="95" y="287" font-size="11" fill="#555" text-anchor="middle">SSR</text>
  <text x="155" y="287" font-size="11" fill="#888">server render on each request</text>

  <rect x="355" y="232" width="80" height="28" rx="6" fill="#ede9fe" stroke="#c4b5fd" stroke-width="1"/>
  <text x="395" y="251" font-size="11" fill="#555" text-anchor="middle">CSR</text>
  <text x="455" y="251" font-size="11" fill="#888">map, filters – runs in browser</text>
</svg>
